# xmcd
#
# Track frame offsets: 
#        150
#        11880
#        24454
#        38165
#        50127
#        62012
#        74667
#        86776
#        100027
#        113484
#        127424
#        139760
#        151272
#        163237
#        176704
#        188924
#        201422
#        213738
#        225726
#        238572
#        249333
#        265245
#        281050
#
# Disc length: 3919 seconds
#
# Revision: 0
# Processed by: cddbd v1.5.2PL0 Copyright (c) Steve Scherf et al.
# Submitted via: ExactAudioCopy v0.99pb4
#
DISCID=5f0f4d17
DTITLE=Various Artist - Good Time Blues - Harmonicas, Kazoos, Washboards and Co
DTITLE=w-Bells
DYEAR=2008
DGENRE=Blues
TTITLE0=Hittin' The Bottle
TTITLE1=Skippy Whippy
TTITLE2=Mary Anna Cut Off
TTITLE3=Gator Wobble
TTITLE4=Mistreated Washboard Blues
TTITLE5=Baby You Win
TTITLE6=Oil It Up And Go
TTITLE7=Tampa Strut
TTITLE8=Diddle-Da-Diddle
TTITLE9=She's Coming Back Some Cold Rainy Day
TTITLE10=If You Take Me Back
TTITLE11=I'm Through With You
TTITLE12=When You Said Goodbye
TTITLE13=I Love You Baby
TTITLE14=Struggle Buggie
TTITLE15=I'm Sittin' Here Tonight
TTITLE16=Dangerous Woman
TTITLE17=Barbecue Bust
TTITLE18=Diggin' My Potatoes No.2
TTITLE19=Touch It Up And Go
TTITLE20=Ninth Street Stomp
TTITLE21=Memphis Jug Blues
TTITLE22=Cocaine Habit Blues
EXTD=
EXTT0=
EXTT1=
EXTT2=
EXTT3=
EXTT4=
EXTT5=
EXTT6=
EXTT7=
EXTT8=
EXTT9=
EXTT10=
EXTT11=
EXTT12=
EXTT13=
EXTT14=
EXTT15=
EXTT16=
EXTT17=
EXTT18=
EXTT19=
EXTT20=
EXTT21=
EXTT22=
PLAYORDER=
